<?xml version="1.0" encoding="UTF-8" standalone="no"?>
<svg
   xmlns:dc="http://purl.org/dc/elements/1.1/"
   xmlns:cc="http://creativecommons.org/ns#"
   xmlns:rdf="http://www.w3.org/1999/02/22-rdf-syntax-ns#"
   xmlns:svg="http://www.w3.org/2000/svg"
   xmlns="http://www.w3.org/2000/svg"
   xmlns:sodipodi="http://sodipodi.sourceforge.net/DTD/sodipodi-0.dtd"
   xmlns:inkscape="http://www.inkscape.org/namespaces/inkscape"
   width="1200pt"
   height="1200pt"
   version="1.1"
   viewBox="0 0 1200 1200"
   id="svg12"
   sodipodi:docname="icon.svg"
   inkscape:export-filename="/home/johan/ipmlab/ipmlab/icons/ipmlab.png"
   inkscape:export-xdpi="7.6799998"
   inkscape:export-ydpi="7.6799998"
   inkscape:version="0.92.5 (2060ec1f9f, 2020-04-08)">
  <metadata
     id="metadata18">
    <rdf:RDF>
      <cc:Work
         rdf:about="">
        <dc:format>image/svg+xml</dc:format>
        <dc:type
           rdf:resource="http://purl.org/dc/dcmitype/StillImage" />
        <dc:title></dc:title>
      </cc:Work>
    </rdf:RDF>
  </metadata>
  <defs
     id="defs16" />
  <sodipodi:namedview
     pagecolor="#00bfff"
     bordercolor="#666666"
     borderopacity="1"
     objecttolerance="10"
     gridtolerance="10"
     guidetolerance="10"
     inkscape:pageopacity="1"
     inkscape:pageshadow="2"
     inkscape:window-width="1872"
     inkscape:window-height="1030"
     id="namedview14"
     showgrid="false"
     inkscape:zoom="0.417193"
     inkscape:cx="113.95202"
     inkscape:cy="807.84012"
     inkscape:window-x="48"
     inkscape:window-y="0"
     inkscape:window-maximized="1"
     inkscape:current-layer="svg12" />
  <path
     style="fill:#ffffff;fill-opacity:1;stroke-width:1"
     d="m 125.98048,59.999971 c -17.5,0 -34.284707,6.94942 -46.659707,19.32422 -12.371,12.374998 -19.3242,29.155279 -19.3242,46.655269 v 948.04104 c 0,17.496 6.9533,34.2803 19.3242,46.6553 12.375,12.371 29.159707,19.3242 46.659707,19.3242 h 0.01 948.02902 c 17.5001,0 34.2862,-6.9523 46.6612,-19.3272 12.371,-12.371 19.3227,-29.1567 19.3227,-46.6567 V 348.38376 c 0,-19.59 -7.7809,-38.37947 -21.6328,-52.23047 L 903.8516,81.632791 C 889.99963,67.780781 871.21018,59.999971 851.62116,59.999971 H 817.37308 270.60111 Z"
     id="path2-6"
     inkscape:connector-curvature="0" />
  <g
     id="g10"
     transform="translate(0.0094,-0.003)">
    <path
       d="m 548.22,112.1 h 151.56 c 6.3125,0 11.434,6.3125 11.434,11.434 v 240.01 c 0,6.3125 -5.1172,11.434 -11.434,11.434 H 548.22 c -6.3125,0 -11.434,-6.3125 -11.434,-11.434 v -240.01 c 0,-6.3125 5.1172,-11.434 11.434,-11.434 z"
       id="path2"
       inkscape:connector-curvature="0" />
    <path
       d="m 125.98,1140 h 948.03 c 17.5,0 34.285,-6.9531 46.66,-19.328 12.371,-12.371 19.324,-29.156 19.324,-46.656 v -725.63 c 0,-19.59 -7.7812,-38.379 -21.633,-52.23 L 903.841,81.636 C 889.989,67.784 871.2,60.003 851.611,60.003 h -42.219 v 339.37 c 0,4.7031 -1.8672,9.2148 -5.1914,12.539 -3.3281,3.3242 -7.8359,5.1953 -12.539,5.1953 h -503.34 c -4.7031,0 -9.2109,-1.8711 -12.539,-5.1953 -3.3242,-3.3242 -5.1914,-7.8359 -5.1914,-12.539 V 60.003 h -144.62 c -17.5,0 -34.285,6.9492 -46.66,19.324 -12.371,12.375 -19.324,29.156 -19.324,46.656 v 948.04 c 0,17.496 6.9531,34.281 19.324,46.656 12.375,12.371 29.16,19.324 46.66,19.324 z m 78.016,-538.13 c 0,-11.625 4.6172,-22.773 12.84,-30.996 8.2188,-8.2188 19.367,-12.836 30.992,-12.836 h 704.34 c 11.625,0 22.773,4.6172 30.992,12.836 8.2188,8.2227 12.84,19.371 12.84,30.996 v 390.46 c 0,11.625 -4.6211,22.773 -12.84,30.996 -8.2188,8.2188 -19.367,12.836 -30.992,12.836 h -704.34 c -11.625,0 -22.773,-4.6172 -30.992,-12.836 -8.2227,-8.2227 -12.84,-19.371 -12.84,-30.996 z"
       id="path4"
       inkscape:connector-curvature="0" />
    <path
       d="m 379.98,689.1 h 440.03 c 4.2188,0 7.6367,3.4219 7.6367,7.6406 v 44.723 c 0,2.0273 -0.80469,3.9688 -2.2344,5.4023 -1.4336,1.4336 -3.375,2.2383 -5.4023,2.2383 H 379.98 c -4.2188,0 -7.6367,-3.4219 -7.6367,-7.6406 v -44.723 c 0,-4.2188 3.418,-7.6367 7.6367,-7.6406 z"
       id="path6"
       inkscape:connector-curvature="0" />
    <path
       d="m 379.98,845.1 h 440.03 c 4.2188,0 7.6367,3.4219 7.6367,7.6406 v 44.723 c 0,2.0273 -0.80469,3.9688 -2.2344,5.4023 -1.4336,1.4336 -3.375,2.2383 -5.4023,2.2383 H 379.98 c -4.2188,0 -7.6406,-3.4219 -7.6406,-7.6406 v -44.723 c 0,-2.0273 0.80469,-3.9688 2.2383,-5.4023 1.4336,-1.4336 3.375,-2.2383 5.4023,-2.2383 z"
       id="path8"
       inkscape:connector-curvature="0" />
  </g>
</svg>
